{
    "asset" : {
        "generator" : "Khronos glTF Blender I/O v1.8.19",
        "version" : "2.0"
    },
    "scene" : 0,
    "scenes" : [
        {
            "name" : "Scene",
            "nodes" : [
                0,
                1,
                2
            ]
        }
    ],
    "nodes" : [
        {
            "mesh" : 0,
            "name" : "earth",
            "rotation" : [
                -0.20042221248149872,
                -0.8449326753616333,
                -0.09932255744934082,
                -0.4858546555042267
            ],
            "scale" : [
                10,
                10,
                10
            ]
        },
        {
            "mesh" : 1,
            "name" : "clouds",
            "rotation" : [
                -0.48725393414497375,
                -0.8544436097145081,
                0.1802069991827011,
                -0.005930163897573948
            ]
        },
        {
            "mesh" : 2,
            "name" : "atmo"
        }
    ],
    "materials" : [
        {
            "doubleSided" : true,
            "emissiveFactor" : [
                1,
                0.4716181457042694,
                0.1117558628320694
            ],
            "name" : "earth",
            "pbrMetallicRoughness" : {}
        },
        {
            "doubleSided" : true,
            "name" : "clouds",
            "pbrMetallicRoughness" : {}
        },
        {
            "doubleSided" : true,
            "name" : "atmo",
            "pbrMetallicRoughness" : {}
        }
    ],
    "meshes" : [
        {
            "name" : "Sphere",
            "primitives" : [
                {
                    "attributes" : {
                        "POSITION" : 0,
                        "NORMAL" : 1,
                        "TANGENT" : 2,
                        "TEXCOORD_0" : 3
                    },
                    "indices" : 4,
                    "material" : 0
                }
            ]
        },
        {
            "name" : "Sphere.001",
            "primitives" : [
                {
                    "attributes" : {
                        "POSITION" : 5,
                        "NORMAL" : 6,
                        "TANGENT" : 7,
                        "TEXCOORD_0" : 8
                    },
                    "indices" : 9,
                    "material" : 1
                }
            ]
        },
        {
            "name" : "Sphere.002",
            "primitives" : [
                {
                    "attributes" : {
                        "POSITION" : 10,
                        "NORMAL" : 11,
                        "TANGENT" : 12,
                        "TEXCOORD_0" : 13
                    },
                    "indices" : 14,
                    "material" : 2
                }
            ]
        }
    ],
    "accessors" : [
        {
            "bufferView" : 0,
            "componentType" : 5126,
            "count" : 2497,
            "max" : [
                0.9872313737869263,
                0.9975767135620117,
                0.9872314929962158
            ],
            "min" : [
                -0.9872310161590576,
                -0.9975767135620117,
                -0.9872310161590576
            ],
            "type" : "VEC3"
        },
        {
            "bufferView" : 1,
            "componentType" : 5126,
            "count" : 2497,
            "type" : "VEC3"
        },
        {
            "bufferView" : 2,
            "componentType" : 5126,
            "count" : 2497,
            "type" : "VEC4"
        },
        {
            "bufferView" : 3,
            "componentType" : 5126,
            "count" : 2497,
            "type" : "VEC2"
        },
        {
            "bufferView" : 4,
            "componentType" : 5123,
            "count" : 11904,
            "type" : "SCALAR"
        },
        {
            "bufferView" : 5,
            "componentType" : 5126,
            "count" : 2497,
            "max" : [
                9.921674728393555,
                10.025655746459961,
                9.921676635742188
            ],
            "min" : [
                -9.921671867370605,
                -10.025655746459961,
                -9.921672821044922
            ],
            "type" : "VEC3"
        },
        {
            "bufferView" : 6,
            "componentType" : 5126,
            "count" : 2497,
            "type" : "VEC3"
        },
        {
            "bufferView" : 7,
            "componentType" : 5126,
            "count" : 2497,
            "type" : "VEC4"
        },
        {
            "bufferView" : 8,
            "componentType" : 5126,
            "count" : 2497,
            "type" : "VEC2"
        },
        {
            "bufferView" : 9,
            "componentType" : 5123,
            "count" : 11904,
            "type" : "SCALAR"
        },
        {
            "bufferView" : 10,
            "componentType" : 5126,
            "count" : 2497,
            "max" : [
                9.971284866333008,
                10.075763702392578,
                9.971285820007324
            ],
            "min" : [
                -9.971280097961426,
                -10.075763702392578,
                -9.971281051635742
            ],
            "type" : "VEC3"
        },
        {
            "bufferView" : 11,
            "componentType" : 5126,
            "count" : 2497,
            "type" : "VEC3"
        },
        {
            "bufferView" : 12,
            "componentType" : 5126,
            "count" : 2497,
            "type" : "VEC4"
        },
        {
            "bufferView" : 13,
            "componentType" : 5126,
            "count" : 2497,
            "type" : "VEC2"
        },
        {
            "bufferView" : 14,
            "componentType" : 5123,
            "count" : 11904,
            "type" : "SCALAR"
        }
    ],
    "bufferViews" : [
        {
            "buffer" : 0,
            "byteLength" : 29964,
            "byteOffset" : 0
        },
        {
            "buffer" : 0,
            "byteLength" : 29964,
            "byteOffset" : 29964
        },
        {
            "buffer" : 0,
            "byteLength" : 39952,
            "byteOffset" : 59928
        },
        {
            "buffer" : 0,
            "byteLength" : 19976,
            "byteOffset" : 99880
        },
        {
            "buffer" : 0,
            "byteLength" : 23808,
            "byteOffset" : 119856
        },
        {
            "buffer" : 0,
            "byteLength" : 29964,
            "byteOffset" : 143664
        },
        {
            "buffer" : 0,
            "byteLength" : 29964,
            "byteOffset" : 173628
        },
        {
            "buffer" : 0,
            "byteLength" : 39952,
            "byteOffset" : 203592
        },
        {
            "buffer" : 0,
            "byteLength" : 19976,
            "byteOffset" : 243544
        },
        {
            "buffer" : 0,
            "byteLength" : 23808,
            "byteOffset" : 263520
        },
        {
            "buffer" : 0,
            "byteLength" : 29964,
            "byteOffset" : 287328
        },
        {
            "buffer" : 0,
            "byteLength" : 29964,
            "byteOffset" : 317292
        },
        {
            "buffer" : 0,
            "byteLength" : 39952,
            "byteOffset" : 347256
        },
        {
            "buffer" : 0,
            "byteLength" : 19976,
            "byteOffset" : 387208
        },
        {
            "buffer" : 0,
            "byteLength" : 23808,
            "byteOffset" : 407184
        }
    ],
    "buffers" : [
        {
            "byteLength" : 430992,
            "uri" : "data:application/octet-stream;base64,"
        }
    ]
}
