{
    "asset" : {
        "generator" : "Khronos glTF Blender I/O v1.8.19",
        "version" : "2.0"
    },
    "extensionsUsed" : [
        "KHR_materials_transmission"
    ],
    "scene" : 0,
    "scenes" : [
        {
            "name" : "Scene",
            "nodes" : [
                0,
                1
            ]
        }
    ],
    "nodes" : [
        {
            "mesh" : 0,
            "name" : "Window1Cube1",
            "rotation" : [
                0,
                0.9999933838844299,
                0,
                -0.0036454556975513697
            ],
            "scale" : [
                0.10001563280820847,
                1.468834400177002,
                6.469956398010254
            ],
            "translation" : [
                -0.06818437576293945,
                1.4553316831588745,
                -3.515803575515747
            ]
        },
        {
            "mesh" : 1,
            "name" : "Text",
            "rotation" : [
                0.5,
                0.5,
                -0.5,
                0.4999999701976776
            ],
            "translation" : [
                -0.11165530234575272,
                2.8547604084014893,
                2.7698278427124023
            ]
        }
    ],
    "materials" : [
        {
            "alphaMode" : "BLEND",
            "doubleSided" : true,
            "extensions" : {
                "KHR_materials_transmission" : {
                    "transmissionFactor" : 1
                }
            },
            "name" : "Glass  Invisible",
            "pbrMetallicRoughness" : {
                "baseColorFactor" : [
                    0.02030101791024208,
                    0.012392801232635975,
                    0.8504415154457092,
                    0.15953311324119568
                ],
                "roughnessFactor" : 0.05000000074505806
            }
        },
        {
            "doubleSided" : true,
            "name" : "Material",
            "pbrMetallicRoughness" : {
                "baseColorFactor" : [
                    0.004990994464606047,
                    0.003804615465924144,
                    0.9556209444999695,
                    1
                ],
                "metallicFactor" : 0.6818181872367859,
                "roughnessFactor" : 0.2136363685131073
            }
        }
    ],
    "meshes" : [
        {
            "name" : "Cube.010",
            "primitives" : [
                {
                    "attributes" : {
                        "POSITION" : 0,
                        "NORMAL" : 1,
                        "TEXCOORD_0" : 2
                    },
                    "indices" : 3,
                    "material" : 0
                }
            ]
        },
        {
            "name" : "Text",
            "primitives" : [
                {
                    "attributes" : {
                        "POSITION" : 4,
                        "NORMAL" : 5,
                        "TEXCOORD_0" : 6
                    },
                    "indices" : 7,
                    "material" : 1
                }
            ]
        }
    ],
    "accessors" : [
        {
            "bufferView" : 0,
            "componentType" : 5126,
            "count" : 24,
            "max" : [
                1,
                1,
                1
            ],
            "min" : [
                -1,
                -1,
                -1
            ],
            "type" : "VEC3"
        },
        {
            "bufferView" : 1,
            "componentType" : 5126,
            "count" : 24,
            "type" : "VEC3"
        },
        {
            "bufferView" : 2,
            "componentType" : 5126,
            "count" : 24,
            "type" : "VEC2"
        },
        {
            "bufferView" : 3,
            "componentType" : 5123,
            "count" : 36,
            "type" : "SCALAR"
        },
        {
            "bufferView" : 4,
            "componentType" : 5126,
            "count" : 20394,
            "max" : [
                12.548249244689941,
                0,
                2.7335102558135986
            ],
            "min" : [
                0.017160004004836082,
                0,
                0.11076000332832336
            ],
            "type" : "VEC3"
        },
        {
            "bufferView" : 5,
            "componentType" : 5126,
            "count" : 20394,
            "type" : "VEC3"
        },
        {
            "bufferView" : 6,
            "componentType" : 5126,
            "count" : 20394,
            "type" : "VEC2"
        },
        {
            "bufferView" : 7,
            "componentType" : 5123,
            "count" : 45660,
            "type" : "SCALAR"
        }
    ],
    "bufferViews" : [
        {
            "buffer" : 0,
            "byteLength" : 288,
            "byteOffset" : 0
        },
        {
            "buffer" : 0,
            "byteLength" : 288,
            "byteOffset" : 288
        },
        {
            "buffer" : 0,
            "byteLength" : 192,
            "byteOffset" : 576
        },
        {
            "buffer" : 0,
            "byteLength" : 72,
            "byteOffset" : 768
        },
        {
            "buffer" : 0,
            "byteLength" : 244728,
            "byteOffset" : 840
        },
        {
            "buffer" : 0,
            "byteLength" : 244728,
            "byteOffset" : 245568
        },
        {
            "buffer" : 0,
            "byteLength" : 163152,
            "byteOffset" : 490296
        },
        {
            "buffer" : 0,
            "byteLength" : 91320,
            "byteOffset" : 653448
        }
    ],
    "buffers" : [
        {
            "byteLength" : 744768,
            "uri" : "data:application/octet-stream;base64,"
        }
    ]
}
