{
    "asset" : {
        "generator" : "Khronos glTF Blender I/O v1.8.19",
        "version" : "2.0"
    },
    "scene" : 0,
    "scenes" : [
        {
            "name" : "Scene",
            "nodes" : [
                0
            ]
        }
    ],
    "nodes" : [
        {
            "mesh" : 0,
            "name" : "Text",
            "rotation" : [
                0.7071068286895752,
                0,
                0,
                0.7071068286895752
            ],
            "translation" : [
                -0.0685126781463623,
                -0.6553255319595337,
                -1.059105634689331
            ]
        }
    ],
    "materials" : [
        {
            "doubleSided" : true,
            "name" : "Material",
            "pbrMetallicRoughness" : {
                "baseColorFactor" : [
                    0.07969041168689728,
                    0.05361148715019226,
                    0.8000000715255737,
                    1
                ],
                "metallicFactor" : 0.9045454263687134,
                "roughnessFactor" : 0
            }
        }
    ],
    "meshes" : [
        {
            "name" : "Text.001",
            "primitives" : [
                {
                    "attributes" : {
                        "POSITION" : 0,
                        "NORMAL" : 1,
                        "TEXCOORD_0" : 2
                    },
                    "indices" : 3,
                    "material" : 0
                }
            ]
        }
    ],
    "accessors" : [
        {
            "bufferView" : 0,
            "componentType" : 5126,
            "count" : 3802,
            "max" : [
                3.5470004081726074,
                0.15000000596046448,
                0.009000000543892384
            ],
            "min" : [
                0.07000000029802322,
                -0.15000000596046448,
                -0.6914074420928955
            ],
            "type" : "VEC3"
        },
        {
            "bufferView" : 1,
            "componentType" : 5126,
            "count" : 3802,
            "type" : "VEC3"
        },
        {
            "bufferView" : 2,
            "componentType" : 5126,
            "count" : 3802,
            "type" : "VEC2"
        },
        {
            "bufferView" : 3,
            "componentType" : 5123,
            "count" : 6804,
            "type" : "SCALAR"
        }
    ],
    "bufferViews" : [
        {
            "buffer" : 0,
            "byteLength" : 45624,
            "byteOffset" : 0
        },
        {
            "buffer" : 0,
            "byteLength" : 45624,
            "byteOffset" : 45624
        },
        {
            "buffer" : 0,
            "byteLength" : 30416,
            "byteOffset" : 91248
        },
        {
            "buffer" : 0,
            "byteLength" : 13608,
            "byteOffset" : 121664
        }
    ],
    "buffers" : [
        {
            "byteLength" : 135272,
            "uri" : "data:application/octet-stream;base64,"
        }
    ]
}
